<?xml version="1.0" encoding="utf-8"?>
<svg viewBox="0 0 180 135" xmlns="http://www.w3.org/2000/svg">
  <path fill="#F61231" stroke="none" d="M 68.742 121.281 C 67.467 114.701 68.448 92.829 66.442 86.787 C 55.458 86.787 38.34 87.981 26.136 88.146 C 19.632 88.229 14.901 88.034 16.242 80.782 C 16.871 77.384 20.187 76.983 24.862 75.053 C 28.115 73.71 33.395 73.627 37.214 73.36 C 62.952 71.561 71.293 74.178 68.699 46.476 C 68.146 40.567 70.388 34.376 78.093 36.546 C 81.774 37.583 82.541 42.063 83.268 48.106 C 83.805 52.574 84.204 59.293 84.204 65.474 C 100.276 63.025 115.431 57.063 126.177 46.375 C 136.611 35.998 129.195 22.978 116.808 21.016 C 93.605 17.342 69.598 22.925 46.532 30.683 C 36.997 33.89 28.076 37.218 18.177 39.157 C 14.158 39.946 12.738 36.669 8.173 35.064 C 10.592 31.441 8.53 25.462 11.964 24.192 C 43.241 12.601 75.282 -0.923 109.392 2.809 C 129.753 5.037 137.843 5.698 148.29 23.401 C 156.703 37.657 146.18 56.227 127.713 66.662 C 120.282 70.86 110.551 73.723 100.838 78.269 C 119.968 87.237 139.273 95.852 156.945 104.122 C 159.222 105.189 161.54 106.176 163.853 107.172 C 170.187 109.903 174.744 113.81 169.875 120.161 C 167.857 122.795 160.614 121.151 156.453 119.411 C 136.309 110.997 116.715 100.797 96.904 91.689 C 92.805 89.807 87.309 87.757 84.684 86.623 C 83.129 93.426 87.451 124.423 82.444 130.005 C 79.21 137.994 69.143 123.352 68.742 121.281 Z" style=""/>
</svg>